<svg width="92" height="86" viewBox="0 0 92 86" fill="none" xmlns="http://www.w3.org/2000/svg">
<path d="M44.3551 17.497L8.1631 41.8913C2.93568 45.4227 0 50.2072 0 55.1954C0 60.1836 2.93568 64.9682 8.1631 68.4996C10.7541 70.2468 13.8314 71.6321 17.2187 72.576C20.6059 73.5199 24.2363 74.0038 27.9017 74C31.5678 74.0044 35.1992 73.5208 38.5873 72.5769C41.9754 71.6329 45.0535 70.2473 47.6449 68.4996L83.8369 44.1084C89.0643 40.577 92 35.7924 92 30.8043C92 25.8161 89.0643 21.0315 83.8369 17.5001C78.5964 13.9779 71.4972 12 64.096 12C56.6948 12 49.5957 13.9779 44.3551 17.5001V17.497ZM32.0429 46.1342C30.8089 46.1342 29.6253 45.8038 28.7527 45.2157C27.8801 44.6276 27.3898 43.83 27.3898 42.9983C27.3898 42.1666 27.8801 41.3689 28.7527 40.7808C29.6253 40.1927 30.8089 39.8624 32.0429 39.8624C33.277 39.8624 34.4606 40.1927 35.3332 40.7808C36.2058 41.3689 36.6961 42.1666 36.6961 42.9983C36.6961 43.83 36.2058 44.6276 35.3332 45.2157C34.4606 45.8038 33.277 46.1342 32.0429 46.1342ZM46.0023 55.5419C44.7682 55.5419 43.5847 55.2116 42.7121 54.6235C41.8394 54.0354 41.3492 53.2377 41.3492 52.406C41.3492 51.5743 41.8394 50.7767 42.7121 50.1886C43.5847 49.6005 44.7682 49.2701 46.0023 49.2701C47.2364 49.2701 48.42 49.6005 49.2926 50.1886C50.1652 50.7767 50.6555 51.5743 50.6555 52.406C50.6555 53.2377 50.1652 54.0354 49.2926 54.6235C48.42 55.2116 47.2364 55.5419 46.0023 55.5419ZM46.0023 36.7264C44.7682 36.7264 43.5847 36.396 42.7121 35.8079C41.8394 35.2199 41.3492 34.4222 41.3492 33.5905C41.3492 32.7588 41.8394 31.9612 42.7121 31.3731C43.5847 30.785 44.7682 30.4546 46.0023 30.4546C47.2364 30.4546 48.42 30.785 49.2926 31.3731C50.1652 31.9612 50.6555 32.7588 50.6555 33.5905C50.6555 34.4222 50.1652 35.2199 49.2926 35.8079C48.42 36.396 47.2364 36.7264 46.0023 36.7264ZM59.9617 46.1342C58.7276 46.1342 57.5441 45.8038 56.6715 45.2157C55.7988 44.6276 55.3086 43.83 55.3086 42.9983C55.3086 42.1666 55.7988 41.3689 56.6715 40.7808C57.5441 40.1927 58.7276 39.8624 59.9617 39.8624C61.1958 39.8624 62.3793 40.1927 63.252 40.7808C64.1246 41.3689 64.6148 42.1666 64.6148 42.9983C64.6148 43.83 64.1246 44.6276 63.252 45.2157C62.3793 45.8038 61.1958 46.1342 59.9617 46.1342Z" fill="white"/>
</svg>
