<svg width="92" height="86" viewBox="0 0 92 86" fill="none" xmlns="http://www.w3.org/2000/svg">
<path d="M90.4619 46.517C90.7701 45.5257 91.0323 44.5254 91.2485 43.507C91.2623 43.43 91.2669 43.3576 91.2853 43.2806C91.3773 42.8371 91.4187 42.3799 91.4923 41.9318C91.6073 41.2212 91.7453 40.5151 91.8143 39.7999C92.3618 34.465 91.6951 29.077 89.8627 24.0272C88.0304 18.9774 85.0782 14.3924 81.2207 10.6052C77.8066 7.23855 73.7504 4.56863 69.2848 2.7487C64.8193 0.928764 60.0324 -0.00533655 55.199 2.29326e-05V36.2105H20.7778L16.8311 27.1579H0V36.2105H10.7684L19.177 55.5198C16.2291 56.7151 13.7077 58.7439 11.9317 61.3495C10.1558 63.9551 9.20504 67.0205 9.19983 70.1579C9.19983 78.8937 16.4217 86 25.2995 86C33.3908 86 40.0377 80.0751 41.1646 72.4211H50.8337C51.9606 80.0751 58.6075 86 66.6988 86C75.5766 86 82.7985 78.8937 82.7985 70.1579C82.7985 67.3063 81.9659 64.6675 80.6227 62.35C80.8159 62.1644 81.0321 62.0015 81.2253 61.8114C82.8813 60.1774 84.39 58.3759 85.7194 56.4522C87.0442 54.5059 88.185 52.4419 89.105 50.301C89.1786 50.1335 89.2246 49.957 89.2936 49.7895H89.2981L89.3671 49.5994C89.7719 48.6036 90.1399 47.6033 90.4481 46.5758L90.4619 46.517ZM25.2995 76.9474C21.4954 76.9474 18.3997 73.9012 18.3997 70.1579C18.3997 66.4146 21.4954 63.3684 25.2995 63.3684C29.1037 63.3684 32.1994 66.4146 32.1994 70.1579C32.1994 73.9012 29.1037 76.9474 25.2995 76.9474ZM66.6988 76.9474C62.8946 76.9474 59.7989 73.9012 59.7989 70.1579C59.7989 66.4146 62.8946 63.3684 66.6988 63.3684C70.5029 63.3684 73.5986 66.4146 73.5986 70.1579C73.5986 73.9012 70.5029 76.9474 66.6988 76.9474Z" fill="white"/>
</svg>
