<svg width="25" height="25" viewBox="0 0 25 25" fill="none" xmlns="http://www.w3.org/2000/svg">
<path d="M12.5002 14.5833C14.7981 14.5833 16.6668 12.7146 16.6668 10.4167C16.6668 8.11875 14.7981 6.25 12.5002 6.25C10.2022 6.25 8.3335 8.11875 8.3335 10.4167C8.3335 12.7146 10.2022 14.5833 12.5002 14.5833ZM12.5002 8.33333C13.6491 8.33333 14.5835 9.26771 14.5835 10.4167C14.5835 11.5656 13.6491 12.5 12.5002 12.5C11.3512 12.5 10.4168 11.5656 10.4168 10.4167C10.4168 9.26771 11.3512 8.33333 12.5002 8.33333Z" fill="black"/>
<path d="M11.7388 24.7677C11.9609 24.9188 12.227 25 12.5 25C12.773 25 13.0391 24.9188 13.2612 24.7677C13.6602 24.4989 23.0392 18.0501 22.9999 10.0001C22.9999 4.48629 18.2894 0 12.5 0C6.71194 0 2.00012 4.48629 2.00012 9.99383C1.96205 18.0501 11.3398 24.4989 11.7388 24.7677ZM12.5 2.50002C16.8443 2.50002 20.3749 5.8638 20.3749 10.0063C20.4025 15.5539 14.6157 20.5352 12.5 22.1689C10.3869 20.5339 4.59884 15.5514 4.62509 10.0001C4.62509 5.8638 8.15698 2.50002 12.5 2.50002Z" fill="black"/>
</svg>
