<svg width="46" height="46" fill="white" viewBox="0 0 24 24" xmlns="http://www.w3.org/2000/svg">
    <path d="M17.707 12.293a1 1 0 0 0-1.414 0L14.7 13.887c-.739-.22-2.118-.72-2.992-1.594-.874-.874-1.374-2.253-1.594-2.992l1.594-1.594a.998.998 0 0 0 0-1.414l-4-4a.999.999 0 0 0-1.414 0L3.581 5.005c-.38.38-.594.902-.586 1.435.023 1.424.4 6.37 4.298 10.268 3.898 3.898 8.844 4.274 10.27 4.298h.027c.528 0 1.027-.208 1.405-.586l2.712-2.712a.998.998 0 0 0 0-1.414l-4-4Zm-.127 6.712c-1.248-.02-5.518-.356-8.873-3.712-3.366-3.366-3.692-7.65-3.712-8.874L7 4.414 9.586 7 8.293 8.293a1 1 0 0 0-.272.912c.024.115.611 2.842 2.271 4.502 1.66 1.66 4.387 2.247 4.502 2.271a.99.99 0 0 0 .912-.27L17 14.413 19.586 17l-2.006 2.005Z"></path>
</svg>