<svg width="92" height="86" viewBox="0 0 92 86" fill="none" xmlns="http://www.w3.org/2000/svg">
<path d="M41.976 68.4388V77.4H33.9302V86H58.0675V77.4H50.0218V68.4388C62.7421 66.7102 73.5516 57.0008 77.0274 43.5289C78.0894 39.4353 78.2825 34.7999 77.6027 29.7431L74.1188 3.6894C73.9814 2.66514 73.503 1.72822 72.7714 1.05054C72.0399 0.372853 71.1042 -0.000137935 70.1362 3.82647e-08H21.8616C20.8935 -0.000137935 19.9579 0.372853 19.2263 1.05054C18.4948 1.72822 18.0164 2.66514 17.8789 3.6894L14.3991 29.7388C13.7152 34.7999 13.9123 39.4353 14.9744 43.5246C18.4461 57.0008 29.2556 66.7102 41.976 68.4388ZM66.6483 8.6L68.9414 25.8H23.0523L25.3454 8.6H66.6483Z" fill="white"/>
</svg>
