<svg width="26" height="20" viewBox="0 0 26 20" fill="none" xmlns="http://www.w3.org/2000/svg">
<path d="M22.6336 0H3.1559C1.81316 0 0.721191 1.12125 0.721191 2.5V17.5C0.721191 18.8787 1.81316 20 3.1559 20H22.6336C23.9763 20 25.0683 18.8787 25.0683 17.5V2.5C25.0683 1.12125 23.9763 0 22.6336 0ZM22.6336 2.5V3.13875L12.8947 10.9175L3.1559 3.14V2.5H22.6336ZM3.1559 17.5V6.305L12.1473 13.4862C12.3605 13.6582 12.6237 13.7516 12.8947 13.7516C13.1658 13.7516 13.429 13.6582 13.6422 13.4862L22.6336 6.305L22.636 17.5H3.1559Z" fill="white"/>
</svg>
