<svg width="25" height="24" viewBox="0 0 25 24" fill="none" xmlns="http://www.w3.org/2000/svg">
<path d="M17.9631 12.293C17.7728 12.1055 17.5149 12.0002 17.2459 12.0002C16.9769 12.0002 16.7189 12.1055 16.5286 12.293L14.9126 13.887C14.1629 13.667 12.764 13.167 11.8773 12.293C10.9907 11.419 10.4834 10.04 10.2603 9.30099L11.8773 7.70699C11.9717 7.61427 12.0466 7.50409 12.0978 7.38276C12.1489 7.26144 12.1752 7.13136 12.1752 6.99999C12.1752 6.86862 12.1489 6.73854 12.0978 6.61722C12.0466 6.49589 11.9717 6.38571 11.8773 6.29299L7.81947 2.29299C7.72534 2.20004 7.61354 2.1263 7.49047 2.07599C7.3674 2.02568 7.23548 1.99979 7.10224 1.99979C6.96901 1.99979 6.83709 2.02568 6.71402 2.07599C6.59095 2.1263 6.47915 2.20004 6.38502 2.29299L3.63278 5.00499C3.24729 5.38499 3.03019 5.90699 3.03831 6.43999C3.06164 7.86399 3.44409 12.81 7.39847 16.708C11.3528 20.606 16.3704 20.982 17.817 21.006H17.8444C18.38 21.006 18.8862 20.798 19.2697 20.42L22.0209 17.708C22.1153 17.6153 22.1903 17.5051 22.2414 17.3838C22.2925 17.2624 22.3188 17.1324 22.3188 17.001C22.3188 16.8696 22.2925 16.7395 22.2414 16.6182C22.1903 16.4969 22.1153 16.3867 22.0209 16.294L17.9631 12.294V12.293ZM17.8342 19.005C16.5682 18.985 12.2364 18.649 8.83292 15.293C5.41824 11.927 5.08752 7.64299 5.06723 6.41899L7.10123 4.41399L9.72463 6.99999L8.41293 8.29299C8.29369 8.41044 8.20602 8.55533 8.15785 8.71456C8.10967 8.87379 8.1025 9.04234 8.137 9.20499C8.16134 9.31999 8.75683 12.047 10.4408 13.707C12.1248 15.367 14.8913 15.954 15.008 15.978C15.1728 16.0132 15.3439 16.0069 15.5056 15.9597C15.6673 15.9125 15.8143 15.8259 15.9331 15.708L17.2459 14.413L19.8693 17L17.8342 19.005Z" fill="white"/>
</svg>
